:SAMPLES-PER-SECOND 30
:FULLY-SPECIFIED
:DEGREES
302
root  -38.8338 24.8444 -5.98762 20.7303 -1.65819 -0.916351
RightUpLeg  -42.7751 -0.775735 -45.0998
RightLeg  36.6159 -7.83799 -5.06214
RightFoot  9.72787 0.00328937 0.33887
RightToes  -41.5947 -0.231346 -0.323952
Spine  14.3962 10.1857 3.60925
Spine1  29.2055 24.871 0.385969
HEad  8.57977 -0.466645 2.76013
LeftShoulder1  0 -2.42657e-020 -4.95415e-022
LeftArm  -21.1561 1.33536 -92.2242
LeftForeArm  11.1666 -48.9388 -11.6883
LeftHand  0.0295634 -5.66397 -0.968759
RightShoulder  0 2.42657e-020 1.07489e-018
RightArm  -38.861 37.2809 16.5666
RightForeArm  -8.94369 46.0562 10.5126
RightHand  2.72427 9.72314 31.6284
LeftUpLeg  -53.2405 -13.0952 45.2751
LeftLeg  53.7313 -12.3379 -14.3188
LeftFoot  -17.8787 0.840103 5.33701
LeftToes  -67.1113 1.71452e-006 7.46813e-008
303
root  -36.4617 24.9511 -7.00444 22.4305 -1.45668 1.98029
RightUpLeg  -46.2991 2.22971 -45.3685
RightLeg  54.3149 -4.62994 -5.67704
RightFoot  4.84677 -0.0482003 1.51621
RightToes  -45.0255 -0.259822 -0.341715
Spine  14.0616 11.3245 -0.818607
Spine1  26.2251 26.4823 -3.34811
HEad  3.8333 -8.68011 13.3984
LeftShoulder1  0 -2.42657e-020 -4.95415e-022
LeftArm  -15.1497 -5.99139 -88.9465
LeftForeArm  12.6818 -47.719 -11.1909
LeftHand  0.109761 -6.3207 -2.36024
RightShoulder  0 2.42657e-020 1.07489e-018
RightArm  -35.0574 44.7109 13.5563
RightForeArm  -13.3035 50.0754 12.124
RightHand  4.7267 14.4611 36.4251
LeftUpLeg  -60.2573 -10.3767 37.4281
LeftLeg  58.6009 -10.3145 -14.3121
LeftFoot  -18.2946 0.821403 5.09794
LeftToes  -61.7591 1.71452e-006 7.46813e-008
304
root  -34.2491 24.7174 -7.63616 22.124 3.08665 7.03281
RightUpLeg  -44.9157 -1.19819 -40.898
RightLeg  77.4549 -3.98295 -13.6939
RightFoot  -6.70654 0.229234 4.28882
RightToes  -30.7496 -0.149117 -0.257142
Spine  15.03 10.8732 -4.40324
Spine1  26.0415 25.788 -7.39474
HEad  -1.7391 -15.4552 24.3948
LeftShoulder1  0 -2.42657e-020 -4.95415e-022
LeftArm  -10.6267 -14.1696 -87.3684
LeftForeArm  13.8229 -46.0421 -10.5442
LeftHand  0.131188 -6.62761 -2.63812
RightShoulder  0 2.42657e-020 1.07489e-018
RightArm  -32.466 50.3047 12.5406
RightForeArm  -16.2179 50.5359 12.3176
RightHand  7.05281 19.3221 40.183
LeftUpLeg  -67.444 -14.9419 30.938
LeftLeg  61.8348 -9.33879 -14.6515
LeftFoot  -17.5616 0.763452 4.93955
LeftToes  -59.6513 1.71452e-006 7.46813e-008
305
root  -32.4849 24.4523 -7.89295 21.1019 8.57269 9.84349
RightUpLeg  -40.8574 -6.33012 -28.9463
RightLeg  94.3115 0.304377 -16.296
RightFoot  -16.9394 1.07585 7.59331
RightToes  -23.6113 -0.102492 -0.205205
Spine  15.4708 9.78875 -6.05445
Spine1  25.8776 24.1107 -9.6733
HEad  -2.4491 -20.3344 30.7703
LeftShoulder1  0 -2.42657e-020 -4.95415e-022
LeftArm  -9.47236 -16.442 -86.2655
LeftForeArm  12.1924 -45.7095 -10.4189
LeftHand  0.115147 -6.06973 -2.54444
RightShoulder  0 2.42657e-020 1.07489e-018
RightArm  -24.4626 53.3994 18.6407
RightForeArm  -13.9059 51.3085 12.6776
RightHand  6.9037 19.156 39.7222
LeftUpLeg  -72.7115 -19.8684 27.3163
LeftLeg  65.3644 -8.92149 -16.0685
LeftFoot  -15.8748 0.697133 4.99689
LeftToes  -59.6955 1.71452e-006 7.46813e-008
306
root  -30.9336 24.1954 -7.9062 17.5177 13.5754 8.9675
RightUpLeg  -35.0143 -14.7149 -12.2853
RightLeg  100.48 1.4928 -11.2301
RightFoot  -20.1183 1.01389 6.08872
RightToes  -32.8963 -0.164365 -0.271583
Spine  16.1556 8.74097 -5.68985
Spine1  27.21 21.9525 -8.9323
HEad  -2.34278 -23.9737 34.6841
LeftShoulder1  0 -2.42657e-020 -4.95415e-022
LeftArm  -9.08797 -16.7503 -85.5121
LeftForeArm  8.85496 -45.097 -10.1912
LeftHand  0.0887009 -5.35211 -2.27047
RightShoulder  0 2.42657e-020 1.07489e-018
RightArm  -15.3126 51.1522 26.4621
RightForeArm  -10.4088 55.3711 14.7686
RightHand  6.68514 18.74 39.3649
LeftUpLeg  -74.6156 -23.7658 25.0904
LeftLeg  70.3305 -7.67632 -17.2072
LeftFoot  -14.416 0.621251 4.90922
LeftToes  -58.4889 1.71452e-006 7.46813e-008
